<svg id="Capa_1" data-name="Capa 1" xmlns="http://www.w3.org/2000/svg" xmlns:xlink="http://www.w3.org/1999/xlink" viewBox="0 0 371.51 468.29">
    <title>doc</title>
    <path d="M337.33,0H95.22A18.73,18.73,0,0,0,76.49,18.73V449.56a18.72,18.72,0,0,0,18.73,18.73h306a18.72,18.72,0,0,0,18.73-18.73v-367Z" transform="translate(-48.39 0)" fill="#e1e6e9"/><rect y="258.07" width="371.51" height="128.3" fill="#27a2db"/><polygon points="0 386.36 28.1 412.49 28.1 386.36 0 386.36" fill="#2d93ba"/><polygon points="288.95 82.57 371.51 82.57 288.94 0 288.95 82.57" fill="#ebf0f3"/><polygon points="304.83 82.57 371.51 121.25 371.51 82.57 304.83 82.57" fill="#d5d6db"/>
    <image width="1120" height="351" transform="translate(28.1 271.92) scale(0.29)" xlink:href="logo_qrysis_blanco_entero.png"/>
</svg>
