<svg id="Capa_1" data-name="Capa 1" xmlns="http://www.w3.org/2000/svg" viewBox="0 0 197.83 26.08"><title>IMPORTAR_PLANIFICACION</title><rect width="197.83" height="26.08" rx="2.71" fill="#448463"/><path d="M340.08,210.78a.35.35,0,0,0-.3-.07l-9.16,2.11a.35.35,0,0,0-.27.35v12a.35.35,0,0,0,.3.35l9.16,1.41a.35.35,0,0,0,.4-.3V211.06A.34.34,0,0,0,340.08,210.78Z" transform="translate(-158.88 -205.76)" fill="#f6f6f6"/><path d="M346.91,225.5h-7.05a.35.35,0,0,1-.35-.35.35.35,0,0,1,.35-.35h6.7v-12h-6.7a.36.36,0,0,1,0-.71h7.05a.36.36,0,0,1,.35.36v12.68A.35.35,0,0,1,346.91,225.5Z" transform="translate(-158.88 -205.76)" fill="#f6f6f6"/><path d="M337,222a.35.35,0,0,1-.3-.17l-3.52-5.63a.36.36,0,0,1,.59-.4v0l3.52,5.64a.37.37,0,0,1-.11.49A.41.41,0,0,1,337,222Z" transform="translate(-158.88 -205.76)" fill="#448463"/><path d="M333.52,222a.35.35,0,0,1-.35-.35.41.41,0,0,1,.05-.19l3.52-5.64a.35.35,0,1,1,.61.36v0l-3.52,5.63A.35.35,0,0,1,333.52,222Z" transform="translate(-158.88 -205.76)" fill="#448463"/><path d="M342.68,225.5a.35.35,0,0,1-.35-.35V212.47a.36.36,0,0,1,.35-.36.35.35,0,0,1,.35.36v12.68A.34.34,0,0,1,342.68,225.5Z" transform="translate(-158.88 -205.76)" fill="#f6f6f6"/><path d="M346.91,223.39h-7.05a.36.36,0,0,1,0-.71h7.05a.36.36,0,0,1,0,.71Z" transform="translate(-158.88 -205.76)" fill="#f6f6f6"/><path d="M346.91,221.27h-7.05a.35.35,0,0,1-.35-.35.35.35,0,0,1,.35-.35h7.05a.35.35,0,0,1,.35.35A.35.35,0,0,1,346.91,221.27Z" transform="translate(-158.88 -205.76)" fill="#f6f6f6"/><path d="M346.91,219.16h-7.05a.35.35,0,0,1-.35-.35.35.35,0,0,1,.35-.35h7.05a.35.35,0,0,1,.35.35A.35.35,0,0,1,346.91,219.16Z" transform="translate(-158.88 -205.76)" fill="#f6f6f6"/><path d="M346.91,217.05h-7.05a.36.36,0,0,1,0-.71h7.05a.36.36,0,0,1,0,.71Z" transform="translate(-158.88 -205.76)" fill="#f6f6f6"/><path d="M346.91,214.93h-7.05a.35.35,0,0,1-.35-.35.35.35,0,0,1,.35-.35h7.05a.35.35,0,0,1,.35.35A.35.35,0,0,1,346.91,214.93Z" transform="translate(-158.88 -205.76)" fill="#f6f6f6"/><text transform="translate(7.11 17.59)" font-size="12.41" fill="#fff" font-family="Raleway-Regular, Raleway">IMPO<tspan x="31.01" y="0" letter-spacing="-0.01em">R</tspan><tspan x="38.98" y="0" letter-spacing="-0.07em">T</tspan><tspan x="45.68" y="0">AR PLANIFI</tspan><tspan x="111.75" y="0" letter-spacing="-0.01em">C</tspan><tspan x="120.14" y="0" letter-spacing="-0.03em">A</tspan><tspan x="128.21" y="0">CIÓN</tspan></text></svg>