<?xml version="1.0" encoding="iso-8859-1"?>
<!-- Generator: Adobe Illustrator 19.0.0, SVG Export Plug-In . SVG Version: 6.00 Build 0)  -->
<svg version="1.1" id="Layer_1" xmlns="http://www.w3.org/2000/svg" xmlns:xlink="http://www.w3.org/1999/xlink" x="0px" y="0px"
	 viewBox="0 0 512 512" style="enable-background:new 0 0 512 512;" xml:space="preserve" fill="#317B8A">
<g>
	<g>
		<path d="M487.021,311.583l-106.941-53.471l-71.267-199.57c-7.958-22.25-29.167-37.208-52.813-37.208s-44.854,14.958-52.813,37.219
			l-71.266,199.56L24.979,311.583C9.563,319.292,0,334.771,0,352c0,17.208,9.563,32.698,24.979,40.417l165.625,82.813
			c20.208,10.094,42.813,15.438,65.396,15.438s45.188-5.344,65.396-15.438l165.625-82.813C502.438,384.698,512,369.208,512,352
			C512,334.771,502.438,319.292,487.021,311.583z M223.271,65.729c4.938-13.792,18.083-23.063,32.729-23.063
			s27.792,9.271,32.729,23.052l17.603,49.293C298.426,120.671,283.053,128,256,128c-27.051,0-42.422-7.329-50.329-12.987
			L223.271,65.729z M198.313,135.617c11.747,7.027,30.026,13.716,57.688,13.716c27.663,0,45.943-6.689,57.69-13.716l18.396,51.516
			c-10.975,15.766-40.549,26.201-76.086,26.201c-35.535,0-65.109-10.434-76.085-26.198L198.313,135.617z M171.803,209.848
			c18.023,15.613,48.169,24.819,84.197,24.819s66.174-9.204,84.198-24.819l19.445,54.453
			c-11.71,17.135-47.457,34.366-103.643,34.366c-56.185,0-91.93-17.23-103.642-34.366L171.803,209.848z M144.206,287.13
			C163.418,304.564,199.69,320,256,320c56.311,0,92.585-15.436,111.796-32.87l16.142,45.203C381.417,363.927,307.292,384,256,384
			s-125.417-20.073-127.938-51.667L144.206,287.13z M477.479,373.333l-165.625,82.813c-34.5,17.25-77.208,17.25-111.708,0
			L34.521,373.333c-8.125-4.073-13.188-12.25-13.188-21.333c0-9.094,5.063-17.271,13.188-21.333l87.031-43.516l-14.26,39.932
			c-0.417,1.146-0.625,2.365-0.625,3.583c0,50.938,89.104,74.667,149.333,74.667s149.333-23.729,149.333-74.667
			c0-1.219-0.208-2.438-0.625-3.583l-14.259-39.932l87.03,43.516c8.125,4.063,13.188,12.24,13.188,21.333
			C490.667,361.083,485.604,369.26,477.479,373.333z"/>
	</g>
</g>
</svg>
