<svg height="457pt" viewBox="-65 0 457 457.14501" width="457pt" xmlns="http://www.w3.org/2000/svg"><path d="m286.425781 72.136719v375.863281l-138.605469-159.175781-138.605468 159.175781v-375.863281c0-34.832031 28.160156-62.992188 62.992187-62.992188h246.859375c-35.382812 25.691407-32.640625 28.160157-32.640625 62.992188zm0 0" fill="#730000"/><path d="m9.214844 457.144531c-1.074219 0-2.160156-.1875-3.203125-.582031-3.574219-1.339844-5.9375002-4.75-5.9375002-8.5625v-375.855469c0-39.777343 32.3554692-72.144531 72.1328122-72.144531h246.855469c3.960938 0 7.472656 2.554688 8.699219 6.320312 1.222656 3.769532-.121094 7.894532-3.324219 10.222657-29.0625 21.101562-29.058594 21.617187-28.894531 48.574219l.023437 7.027343v375.855469c0 3.8125-2.363281 7.222656-5.9375 8.5625-3.554687 1.339844-7.597656.320312-10.101562-2.5625l-131.710938-151.257812-131.703125 151.257812c-1.773437 2.035156-4.304687 3.144531-6.898437 3.144531zm138.601562-177.464843c2.644532 0 5.164063 1.140624 6.898438 3.140624l122.566406 140.761719-.027344-358.359375c-.140625-23.804687 1.042969-33.445312 15.542969-46.9375h-220.589844c-29.691406 0-53.847656 24.160156-53.847656 53.859375v351.4375l122.5625-140.761719c1.734375-2 4.253906-3.140624 6.894531-3.140624zm0 0" fill="none"/></svg>
